<?xml version="1.0" standalone="no"?>
<!DOCTYPE svg PUBLIC "-//W3C//DTD SVG 20010904//EN"
 "http://www.w3.org/TR/2001/REC-SVG-20010904/DTD/svg10.dtd">
<svg version="1.0" xmlns="http://www.w3.org/2000/svg"
 width="512.000000pt" height="512.000000pt" viewBox="0 0 512.000000 512.000000"
 preserveAspectRatio="xMidYMid meet">
<metadata>
Created by potrace 1.14, written by Peter Selinger 2001-2017
</metadata>
<g transform="translate(0.000000,512.000000) scale(0.100000,-0.100000)"
fill="#000000" stroke="none">
<path d="M2531 4952 c-14 -2 -275 -144 -580 -315 -306 -170 -853 -476 -1216
-679 -363 -203 -672 -381 -688 -396 -56 -54 -56 -150 0 -204 29 -28 2372
-1346 2456 -1382 41 -17 53 -19 90 -9 52 15 2441 1354 2480 1391 36 34 51 90
38 140 -19 70 126 -16 -1851 1089 -355 198 -658 362 -675 365 -16 2 -41 3 -54
0z m-493 -1062 c62 -38 92 -132 61 -193 -6 -12 -59 -70 -117 -129 l-106 -108
111 -112 c118 -120 133 -147 119 -222 -17 -88 -130 -145 -209 -105 -31 16
-356 339 -373 371 -8 15 -14 45 -14 68 0 23 6 53 14 68 16 30 340 354 371 371
33 17 107 13 143 -9z m685 -6 c31 -22 67 -90 67 -125 0 -46 -160 -654 -178
-679 -66 -89 -175 -93 -245 -10 -47 55 -45 73 38 412 43 172 87 331 99 352 29
53 77 78 142 73 29 -2 62 -12 77 -23z m505 12 c32 -17 355 -342 371 -373 15
-30 14 -99 -3 -131 -22 -41 -347 -360 -379 -372 -103 -38 -207 34 -207 143 0
55 10 70 128 190 l107 107 -107 108 c-58 59 -111 117 -117 129 -18 34 -13 104
9 141 40 65 133 92 198 58z"/>
<path d="M350 1941 c-290 -160 -305 -170 -328 -212 -17 -32 -22 -54 -19 -81
11 -87 -46 -52 1274 -792 1208 -678 1229 -689 1283 -690 54 0 68 8 1005 533
523 294 1075 604 1228 689 297 167 314 180 324 260 3 27 -2 49 -19 82 -23 42
-37 51 -327 211 l-303 167 -151 -85 c-84 -47 -501 -282 -927 -522 -761 -428
-776 -436 -830 -436 -54 0 -70 9 -950 504 -492 277 -909 512 -925 522 l-31 18
-304 -168z"/>
</g>
</svg>
